<svg data-name="Layer 1" xmlns="http://www.w3.org/2000/svg" viewBox="0 0 276.14 50.9"><path d="M0 50.21L6.15.6h8.76l15 32L44.74.6h8.77l6 49.61H49L45.26 20.5l-11.48 24h-8.1l-11.58-24-3.79 29.71zm65.57-24.7a25.37 25.37 0 013.34-12.8A24.88 24.88 0 0178 3.41a25.37 25.37 0 0125.4 0 24.84 24.84 0 019.14 9.26 25.38 25.38 0 013.34 12.84 25.21 25.21 0 01-3.34 12.74 24.9 24.9 0 01-9.14 9.25 25.07 25.07 0 01-35.85-12.2 25.17 25.17 0 01-1.98-9.79zm10.51 0a15.42 15.42 0 004.25 11 14.21 14.21 0 0020.08.71q.37-.34.71-.71a15.39 15.39 0 004.27-11 15.48 15.48 0 00-4.29-11 14.13 14.13 0 00-20-.81q-.42.39-.81.81a15.53 15.53 0 00-4.21 11zm48.59 24.7V.6h10.51v40.33h18.63v9.28zm36.77 0V.6h10.47v40.33h18.63v9.28zm36.77 0V.6h31.4v9.28h-20.88v11.33H227v9.14h-18.27v10.58h21.52v9.28zm41.45 0V.6h20.11A18 18 0 01267 1.99a13.64 13.64 0 015.16 3.73 16.81 16.81 0 013 5.19 17.76 17.76 0 011 6A17.11 17.11 0 01273 26.98a14.11 14.11 0 01-9 5.68l12 17.58h-12.33l-11.1-17.12h-2.4v17.09zm10.51-26.37h9a5.53 5.53 0 004.58-2.14 7.58 7.58 0 001.69-4.82 8 8 0 00-1.6-4.8 5.14 5.14 0 00-4.39-2.2h-9.23z" fill="#fff"/></svg>